<svg width="32" height="32" viewBox="0 0 32 32" fill="none" xmlns="http://www.w3.org/2000/svg">
<g clip-path="url(#clip0_68_5941)">
<circle cx="16" cy="16" r="16" fill="#D1D1E9"/>
<path d="M8.36328 20.9609C7.80078 18.6406 7.30469 16.6992 6.875 15.1367C6.44531 13.5664 6.10156 12.5898 5.84375 12.207L4.67188 12.125C4.44531 11.5312 4.28516 10.8008 4.19141 9.93359C4.32422 9.50391 4.57422 9.13281 4.94141 8.82031C5.30859 8.5 5.73828 8.25781 6.23047 8.09375C6.72266 7.92969 7.21875 7.84766 7.71875 7.84766C8.85938 7.84766 9.71094 8.37109 10.2734 9.41797C10.5312 9.89453 10.75 10.4688 10.9297 11.1406C11.1094 11.8047 11.2773 12.5938 11.4336 13.5078C11.6914 15.0469 11.8711 16.4297 11.9727 17.6562C12.0742 18.875 12.1562 20.1719 12.2188 21.5469L12.2656 22.6016H12.4414C12.6367 22.1719 12.8516 21.2461 13.0859 19.8242C13.3203 18.4023 13.5234 16.8984 13.6953 15.3125C13.8672 13.7188 13.9609 12.5352 13.9766 11.7617L12.5 11.5391C12.3906 11.125 12.3203 10.7539 12.2891 10.4258C12.2578 10.0977 12.2422 9.69922 12.2422 9.23047C12.4062 9.02734 12.6797 8.81641 13.0625 8.59766C13.4453 8.37891 13.8906 8.19531 14.3984 8.04688C14.9062 7.89844 15.4102 7.82422 15.9102 7.82422C16.582 7.82422 17.1875 7.9375 17.7266 8.16406C18.2734 8.38281 18.707 8.71094 19.0273 9.14844C19.3555 9.58594 19.5234 10.1211 19.5312 10.7539V12.5586C19.8828 13.9258 20.1875 15.5312 20.4453 17.375C20.7109 19.2109 20.9062 20.9492 21.0312 22.5898H21.1602C21.3477 22.1523 21.5586 21.2227 21.793 19.8008C22.0352 18.3711 22.2461 16.8672 22.4258 15.2891C22.6055 13.7031 22.6992 12.5273 22.707 11.7617L21.3242 11.5391C21.2148 11.125 21.1445 10.7539 21.1133 10.4258C21.082 10.0977 21.0664 9.69922 21.0664 9.23047C21.2227 9.02734 21.4961 8.81641 21.8867 8.59766C22.2773 8.37891 22.7266 8.19531 23.2344 8.04688C23.75 7.89844 24.2578 7.82422 24.7578 7.82422C25.7812 7.82422 26.5469 8.08984 27.0547 8.62109C27.5625 9.15234 27.8164 9.96094 27.8164 11.0469C27.8164 12.0781 27.6445 13.4062 27.3008 15.0312C26.957 16.6562 26.5273 18.1836 26.0117 19.6133C25.5664 20.8633 25.1289 21.9453 24.6992 22.8594C24.2695 23.7656 23.7383 24.6562 23.1055 25.5312C22.8477 25.7969 22.5078 25.9805 22.0859 26.082C21.6719 26.1836 21.2422 26.2344 20.7969 26.2344C19.2578 26.2344 18.1211 25.9375 17.3867 25.3438L17.7031 22.9414L16.9414 18.9922C16.7617 17.9531 16.6445 17.125 16.5898 16.5078L16.4375 16.4961L16.4023 17.9844C16.1445 19.5156 15.8281 20.9375 15.4531 22.25C15.0859 23.5547 14.6641 24.6484 14.1875 25.5312C13.9609 25.7891 13.6484 25.9688 13.25 26.0703C12.8516 26.1797 12.4453 26.2344 12.0312 26.2344C10.4297 26.2344 9.30078 25.9414 8.64453 25.3555L8.90234 23.1523L8.36328 20.9609Z" fill="#6246EA"/>
</g>
<defs>
<clipPath id="clip0_68_5941">
<rect width="32" height="32" fill="white"/>
</clipPath>
</defs>
</svg>
