<svg width="24" height="24" viewBox="0 0 24 24" fill="none" xmlns="http://www.w3.org/2000/svg">
<path d="M21.9338 4.96016L12.5388 21.739C12.3448 22.0854 11.8465 22.0874 11.6496 21.7427L2.06831 4.96178C1.85382 4.58611 2.17547 4.13106 2.60171 4.20715L12.0068 5.88614C12.0668 5.89685 12.1282 5.89675 12.1882 5.88583L21.3966 4.20956C21.8214 4.13223 22.1445 4.58375 21.9338 4.96016Z" fill="url(#paint0_linear_500_527)"/>
<path d="M16.4869 2.00492L9.53432 3.36554C9.42005 3.3879 9.33544 3.48462 9.32855 3.6007L8.90087 10.8148C8.89081 10.9847 9.04706 11.1166 9.2131 11.0784L11.1488 10.6322C11.3299 10.5905 11.4936 10.7498 11.4563 10.9317L10.8812 13.7443C10.8425 13.9336 11.0205 14.0954 11.2056 14.0393L12.4012 13.6765C12.5865 13.6203 12.7646 13.7826 12.7254 13.9721L11.8115 18.39C11.7543 18.6664 12.1223 18.8171 12.2758 18.5801L12.3783 18.4219L18.0437 7.12992C18.1386 6.94085 17.975 6.72526 17.767 6.76534L15.7746 7.1494C15.5873 7.18545 15.428 7.0113 15.4809 6.82834L16.7813 2.32582C16.8342 2.14255 16.6744 1.96825 16.4869 2.00492Z" fill="url(#paint1_linear_500_527)"/>
<defs>
<linearGradient id="paint0_linear_500_527" x1="1.83438" y1="1.33574" x2="15.3278" y2="17.6668" gradientUnits="userSpaceOnUse">
<stop stop-color="#41D1FF"/>
<stop offset="1" stop-color="#BD34FE"/>
</linearGradient>
<linearGradient id="paint1_linear_500_527" x1="11.467" y1="2.37433" x2="13.5769" y2="16.8667" gradientUnits="userSpaceOnUse">
<stop stop-color="#FFEA83"/>
<stop offset="0.0833333" stop-color="#FFDD35"/>
<stop offset="1" stop-color="#FFA800"/>
</linearGradient>
</defs>
</svg>
